<svg width="18" height="18" viewBox="0 0 18 18" fill="none" xmlns="http://www.w3.org/2000/svg">
<path d="M15.1145 15.0163C14.8072 12.3131 13.5736 11.1927 12.6725 10.3757C12.0496 9.8086 11.75 9.51364 11.75 9.00001C11.75 8.49341 12.0485 8.20407 12.6697 7.6486C13.5813 6.83403 14.8297 5.71817 15.1152 2.97845C15.138 2.74827 15.1122 2.51587 15.0396 2.29628C14.9669 2.07669 14.8489 1.8748 14.6933 1.70368C14.5271 1.52091 14.3245 1.37498 14.0984 1.27531C13.8724 1.17565 13.628 1.12444 13.3809 1.12501H5.61913C5.37175 1.12424 5.12696 1.17533 4.90054 1.27501C4.67413 1.37468 4.47113 1.52071 4.30464 1.70368C4.14948 1.87504 4.03196 2.07701 3.95966 2.29658C3.88736 2.51614 3.86188 2.74843 3.88487 2.97845C4.16929 5.70938 5.41311 6.81716 6.3212 7.62575C6.94839 8.18438 7.25003 8.47583 7.25003 9.00001C7.25003 9.53087 6.94768 9.82829 6.31839 10.3975C5.4219 11.2096 4.19143 12.3216 3.88557 15.0163C3.86074 15.2454 3.88454 15.4772 3.95542 15.6965C4.0263 15.9158 4.14266 16.1177 4.2969 16.289C4.46374 16.4741 4.66773 16.6219 4.89555 16.7229C5.12338 16.8239 5.36993 16.8757 5.61913 16.875H13.3809C13.6301 16.8757 13.8767 16.8239 14.1045 16.7229C14.3323 16.6219 14.5363 16.4741 14.7032 16.289C14.8574 16.1177 14.9738 15.9158 15.0446 15.6965C15.1155 15.4772 15.1393 15.2454 15.1145 15.0163ZM12.5692 15.1875H6.446C5.89757 15.1875 5.74288 14.5547 6.12749 14.1624C7.05843 13.2188 8.93753 12.5431 8.93753 11.4609V7.87501C8.93753 7.17716 7.60159 6.64454 6.77507 5.51251C6.63866 5.32583 6.65237 5.06251 6.99901 5.06251H12.0169C12.3125 5.06251 12.3762 5.32372 12.2419 5.51075C11.4273 6.64454 10.0625 7.17364 10.0625 7.87501V11.4609C10.0625 12.5343 12.0211 13.1133 12.8891 14.1634C13.2389 14.5867 13.1166 15.1875 12.5692 15.1875Z" fill="#FFDB70" stroke="#FFDB70" stroke-width="0.0351562"/>
</svg>
